<svg xmlns="http://www.w3.org/2000/svg" viewBox="0 0 572 158"><defs><style>.cls-1{fill:#fff;}</style></defs><g id="Layer_2" data-name="Layer 2"><path class="cls-1" d="M14.06,74.8h8.8A2.82,2.82,0,0,0,25,74.19a3,3,0,0,0,.55-2V7.26a3.51,3.51,0,0,0-1.1-2.75,4.3,4.3,0,0,0-3-1q-5.17,0-9.46,5.66A38.73,38.73,0,0,0,5.59,22.44a63,63,0,0,0-1.71,6.87c-.33,1.87-.53,3-.6,3.47H-.24L.64,0h66l.88,32.78H64c-.08-.44-.28-1.6-.61-3.47a65,65,0,0,0-1.7-6.87A38.91,38.91,0,0,0,55.31,9.18Q51,3.51,45.85,3.52a4.26,4.26,0,0,0-3,1,3.48,3.48,0,0,0-1.1,2.75v64.9a2.23,2.23,0,0,0,2.64,2.64h8.8v3.52H14.06Z"/><path class="cls-1" d="M74.77,75.68h6.16a1.93,1.93,0,0,0,1.38-.39,2,2,0,0,0,.38-1.37V4.4A2,2,0,0,0,82.31,3a1.93,1.93,0,0,0-1.38-.38H74.77V0H95.45V36l.55.11a22.25,22.25,0,0,1,5.67-8.2,11.75,11.75,0,0,1,8-3,16.39,16.39,0,0,1,4.73.6,12.57,12.57,0,0,1,8.09,7.32A17.41,17.41,0,0,1,124.05,40V73.92a1.46,1.46,0,0,0,1.76,1.76H130v2.64H106V75.68h3.52a1.93,1.93,0,0,0,1.38-.39,1.9,1.9,0,0,0,.38-1.37V36.85q0-8.48-5.06-8.47c-1.54,0-3.15,1-4.84,3.08a25.53,25.53,0,0,0-4.23,8.14,33.4,33.4,0,0,0-1.71,10.78V73.92a1.46,1.46,0,0,0,1.76,1.76h3.52v2.64h-26Z"/><path class="cls-1" d="M150.07,76a24.62,24.62,0,0,1-8.31-10,31.73,31.73,0,0,1-3-13.75,32.2,32.2,0,0,1,3-14,24.5,24.5,0,0,1,8.09-9.85A19.09,19.09,0,0,1,161,24.86a15.83,15.83,0,0,1,11.55,4.78,23.55,23.55,0,0,1,6.38,12.6,55.92,55.92,0,0,1,.77,11H152.87c0,3.52.08,6.28.22,8.3a31.93,31.93,0,0,0,1,5.89,12.11,12.11,0,0,0,3.8,6.49,9.72,9.72,0,0,0,6.54,2.42,10.14,10.14,0,0,0,8.69-4.73,23.28,23.28,0,0,0,4-11.11h2.86a25.66,25.66,0,0,1-5,13.36q-4.29,5.77-12.76,5.78A20.84,20.84,0,0,1,150.07,76ZM167,50.16q0-11.55-1.48-17.11t-5.56-5.55q-4.07,0-5.55,5.55t-1.49,17.11Z"/><path class="cls-1" d="M223.05,74.8h7.7a2.8,2.8,0,0,0,2.09-.61,3,3,0,0,0,.55-2v-66a2.94,2.94,0,0,0-.55-2.09,3,3,0,0,0-2.09-.55h-7.7V0h38.72a30.52,30.52,0,0,1,12.16,2.42A23,23,0,0,1,283,9.07a15,15,0,0,1,3.41,9.63A14.63,14.63,0,0,1,281,30.47a34,34,0,0,1-13.2,6.6v.66a33,33,0,0,1,10,3.24,23.66,23.66,0,0,1,8.08,6.55A14.86,14.86,0,0,1,289.05,57a19.1,19.1,0,0,1-3.52,11.55,21.86,21.86,0,0,1-9.4,7.31,33.07,33.07,0,0,1-12.93,2.48H223.05Zm36.74-39.16q5.94,0,8-4.24t2.09-12.7q0-7.15-2.53-11.17a7.81,7.81,0,0,0-6.93-4h-8.14a3,3,0,0,0-2,.55,2.74,2.74,0,0,0-.61,2.09V35.64Zm0,39.16q5.83,0,8.75-3.91T271.45,57c0-6.68-1-11.31-2.91-13.92s-4.86-3.9-8.75-3.9H249.67v33a2.77,2.77,0,0,0,.61,2,2.81,2.81,0,0,0,2,.61Z"/><path class="cls-1" d="M310.89,76a24.62,24.62,0,0,1-8.31-10,31.73,31.73,0,0,1-3-13.75,32.2,32.2,0,0,1,3-14,24.5,24.5,0,0,1,8.09-9.85,19.09,19.09,0,0,1,11.16-3.57,15.86,15.86,0,0,1,11.55,4.78,23.62,23.62,0,0,1,6.38,12.6,56.72,56.72,0,0,1,.77,11H313.69c0,3.52.07,6.28.22,8.3a31.93,31.93,0,0,0,1,5.89,12.11,12.11,0,0,0,3.8,6.49,9.72,9.72,0,0,0,6.54,2.42,10.15,10.15,0,0,0,8.69-4.73,23.28,23.28,0,0,0,4-11.11h2.86a25.66,25.66,0,0,1-4.95,13.36q-4.29,5.77-12.76,5.78A20.82,20.82,0,0,1,310.89,76Zm16.88-25.79q0-11.55-1.48-17.11c-1-3.7-2.85-5.55-5.56-5.55s-4.56,1.85-5.55,5.55-1.49,9.41-1.49,17.11Z"/><path class="cls-1" d="M355.54,76.67q-4.23-3-4.23-10a13.58,13.58,0,0,1,5.23-11.28,44.41,44.41,0,0,1,13.25-6.87l8.14-2.86V38.17c0-3.74-.77-6.46-2.31-8.14a7.67,7.67,0,0,0-5.94-2.53,10,10,0,0,0-5.34,1.37,4.25,4.25,0,0,0-2.25,3.8,4.41,4.41,0,0,0,.38,1.59,3.61,3.61,0,0,0,1.38,1.6A7,7,0,0,1,366.21,38a5.12,5.12,0,0,1,.72,2.86A4.89,4.89,0,0,1,365,44.93a6.76,6.76,0,0,1-4.23,1.49,6.86,6.86,0,0,1-4.89-1.93,7.26,7.26,0,0,1-2-5.55,11.73,11.73,0,0,1,2.53-7.43,16.27,16.27,0,0,1,6.49-5,20.08,20.08,0,0,1,8-1.7,23.27,23.27,0,0,1,13.86,4.23q5.94,4.25,5.94,13.48V70.4q0,4,2.2,4,2,0,3-3.3a26.45,26.45,0,0,0,1-7.59h3.08q0,8-2.42,11.77a9,9,0,0,1-3.41,3.19A10.4,10.4,0,0,1,389,79.64q-4.52,0-6.82-1.38a10.37,10.37,0,0,1-3.85-4.56h-.22q-4.39,5.94-12.32,5.94A17.47,17.47,0,0,1,355.54,76.67Zm22.39-6.27V48.62l-6.16,2.2a9.17,9.17,0,0,0-5.34,5,23.88,23.88,0,0,0-1.7,9.85q0,5.39,2,7.48a6.07,6.07,0,0,0,4.51,2.09C374.08,75.24,376.32,73.62,377.93,70.4Z"/><path class="cls-1" d="M414.72,76.06q-3.8-3.57-3.79-10.06V29.26h-6.6V26.18a15.66,15.66,0,0,0,10.28-5.39q3.79-4.51,3.8-11.77v-4h5.28V26.18h11.22v3.08H423.69V66.77a14.39,14.39,0,0,0,1,5.83c.66,1.46,2,2.2,4.07,2.2q4.62,0,6.16-6.33a60.2,60.2,0,0,0,1.54-14.13h3.08a75,75,0,0,1-.83,11.55A22.45,22.45,0,0,1,436.12,74q-3.53,5.61-10.67,5.61Q418.52,79.64,414.72,76.06Z"/><path class="cls-1" d="M445,75.68h6.16A1.46,1.46,0,0,0,453,73.92V4.4A1.93,1.93,0,0,0,452.56,3a1.89,1.89,0,0,0-1.37-.38H445V0h20.68V73.92a2,2,0,0,0,.38,1.37,1.93,1.93,0,0,0,1.38.39h6.16v2.64H445Z"/><path class="cls-1" d="M492.6,76a24.68,24.68,0,0,1-8.3-10,31.73,31.73,0,0,1-3-13.75,32.2,32.2,0,0,1,3-14,24.48,24.48,0,0,1,8.08-9.85,19.1,19.1,0,0,1,11.17-3.57,15.86,15.86,0,0,1,11.55,4.78,23.62,23.62,0,0,1,6.38,12.6,56.72,56.72,0,0,1,.77,11H495.41c0,3.52.07,6.28.22,8.3a31.11,31.11,0,0,0,1,5.89,12.09,12.09,0,0,0,3.79,6.49A9.73,9.73,0,0,0,507,76.34a10.15,10.15,0,0,0,8.69-4.73,23.28,23.28,0,0,0,4-11.11h2.86a25.66,25.66,0,0,1-5,13.36q-4.29,5.77-12.76,5.78A20.87,20.87,0,0,1,492.6,76Zm16.89-25.79q0-11.55-1.49-17.11t-5.55-5.55c-2.71,0-4.57,1.85-5.56,5.55s-1.48,9.41-1.48,17.11Z"/><path class="cls-1" d="M534.35,57.86h2.42l5,8.69Q547.66,77,556.68,77q4.07,0,6.05-2a6.4,6.4,0,0,0,2-4.56,6.32,6.32,0,0,0-1.16-3.8,13.67,13.67,0,0,0-4-3.3c-1.87-1.13-4.75-2.66-8.63-4.56A50.82,50.82,0,0,1,539.13,51a14.35,14.35,0,0,1-4.78-11.22q0-6.82,4.29-10.89a14.59,14.59,0,0,1,10.45-4.07q5.16,0,11,3.74a6.89,6.89,0,0,0,3.3,1.32c.88,0,1.46-.59,1.76-1.76l.66-2.2h2v17.6h-2.42l-2.09-4.18a25.37,25.37,0,0,0-6.82-8.91,12.72,12.72,0,0,0-7.81-3,8,8,0,0,0-4.9,1.43,5.37,5.37,0,0,0-1.92,4.62q0,6.48,11.66,12a81,81,0,0,1,10.94,6.05A18.16,18.16,0,0,1,570,57.31a15.11,15.11,0,0,1,1.76,7.59q0,6.81-4.35,10.78a15.48,15.48,0,0,1-10.83,4,22.52,22.52,0,0,1-11.44-3.52c-1.76-1.18-3.08-1.76-4-1.76a4.08,4.08,0,0,0-2.53.82,4.28,4.28,0,0,0-1.54,2.15l-.77,2.31h-2Z"/><path class="cls-1" d="M58.18,145.78h3.46a1.14,1.14,0,0,0,1.29-1.3V116a1.12,1.12,0,0,0-1.29-1.29H58.18v-1.54H72.1v1.54H68.65a1.35,1.35,0,0,0-1,.31,1.33,1.33,0,0,0-.31,1v28.51a1.15,1.15,0,0,0,1.3,1.3H72.1v1.54H58.18Z"/><path class="cls-1" d="M75.94,146.16h2a.89.89,0,0,0,1.05-1V127.64a1.13,1.13,0,0,0-.24-.82,1.12,1.12,0,0,0-.81-.24h-2v-1.15h6.53v3.84l.19,0A8,8,0,0,1,85.28,126a5.87,5.87,0,0,1,3.43-1.13,5.32,5.32,0,0,1,4.2,1.54A8.07,8.07,0,0,1,94.76,130H95a8.15,8.15,0,0,1,2.28-3.56,5.59,5.59,0,0,1,4-1.63c2.34,0,4,.79,5,2.35a10.29,10.29,0,0,1,1.46,5.52v12.39a1.12,1.12,0,0,0,.24.81,1.13,1.13,0,0,0,.82.24h2v1.16h-9.6v-1.16h2a1.15,1.15,0,0,0,.82-.24,1.12,1.12,0,0,0,.24-.81V131a6.25,6.25,0,0,0-.92-3.38,2.9,2.9,0,0,0-2.64-1.46,4,4,0,0,0-2.71,1.12,8.17,8.17,0,0,0-2.06,3.1,11.68,11.68,0,0,0-.79,4.42v10.27a.89.89,0,0,0,1,1h2v1.16h-9.6v-1.16h2a1.13,1.13,0,0,0,.82-.24,1.12,1.12,0,0,0,.24-.81V131a6.24,6.24,0,0,0-.91-3.38A2.92,2.92,0,0,0,88,126.2a4,4,0,0,0-2.71,1.12,8.19,8.19,0,0,0-2.07,3.1,11.68,11.68,0,0,0-.79,4.42v10.27a1.12,1.12,0,0,0,.24.81,1.13,1.13,0,0,0,.82.24h2v1.16h-9.6Z"/><path class="cls-1" d="M114.05,146.16h2a1.15,1.15,0,0,0,.82-.24,1.12,1.12,0,0,0,.24-.81V127.64a1.13,1.13,0,0,0-.24-.82,1.15,1.15,0,0,0-.82-.24h-2v-1.15h6.53v3.84l.19,0a8,8,0,0,1,2.62-3.34,5.87,5.87,0,0,1,3.43-1.13,5.32,5.32,0,0,1,4.2,1.54,8.07,8.07,0,0,1,1.85,3.65h.19a8.33,8.33,0,0,1,2.28-3.56,5.59,5.59,0,0,1,4-1.63c2.34,0,4,.79,5,2.35a10.2,10.2,0,0,1,1.46,5.52v12.39a1.12,1.12,0,0,0,.24.81,1.15,1.15,0,0,0,.82.24h2v1.16h-9.6v-1.16h2a1.13,1.13,0,0,0,.82-.24,1.12,1.12,0,0,0,.24-.81V131a6.33,6.33,0,0,0-.91-3.38,2.92,2.92,0,0,0-2.64-1.46,4.05,4.05,0,0,0-2.72,1.12,8.29,8.29,0,0,0-2.06,3.1,11.68,11.68,0,0,0-.79,4.42v10.27a.89.89,0,0,0,1.05,1h2v1.16h-9.6v-1.16h2a.89.89,0,0,0,1-1V131a6.24,6.24,0,0,0-.91-3.38,2.92,2.92,0,0,0-2.64-1.46,4,4,0,0,0-2.71,1.12,8.19,8.19,0,0,0-2.07,3.1,11.88,11.88,0,0,0-.79,4.42v10.27a1.12,1.12,0,0,0,.24.81,1.13,1.13,0,0,0,.82.24h2v1.16h-9.6Z"/><path class="cls-1" d="M155.36,144.87q-2.72-3-2.71-8.4a13.82,13.82,0,0,1,1.19-5.74,10.82,10.82,0,0,1,3.34-4.27,7.76,7.76,0,0,1,4.78-1.61,7.16,7.16,0,0,1,4.8,1.59,9,9,0,0,1,2.71,4,15.13,15.13,0,0,1,.84,5,.7.7,0,0,1-.34.7,2.82,2.82,0,0,1-1.15.17H156.87a17.63,17.63,0,0,0,1.37,7.63,4.63,4.63,0,0,0,4.48,2.83,6.26,6.26,0,0,0,4.16-1.68,8.25,8.25,0,0,0,2.47-5.23h1.15a9.31,9.31,0,0,1-2.42,5.78,7.28,7.28,0,0,1-5.55,2.28A9.17,9.17,0,0,1,155.36,144.87Zm10.82-9.75a18.29,18.29,0,0,0-1-6.48c-.67-1.76-1.77-2.64-3.31-2.64a4,4,0,0,0-3.72,2.67,14.84,14.84,0,0,0-1.27,6.45Z"/><path class="cls-1" d="M174.25,146.16h2a1.13,1.13,0,0,0,.82-.24,1.12,1.12,0,0,0,.24-.81V127.64a.89.89,0,0,0-1.06-1.06h-2v-1.15h6.52v4.8l.19.05a10.66,10.66,0,0,1,2.62-4,5,5,0,0,1,3.43-1.47,4.26,4.26,0,0,1,3,1.06,3.69,3.69,0,0,1,1.15,2.88,3.47,3.47,0,0,1-.74,2.06,2.28,2.28,0,0,1-1.9,1,2.46,2.46,0,0,1-1.54-.48,1.61,1.61,0,0,1-.62-1.34,2.11,2.11,0,0,1,1-1.73,3.56,3.56,0,0,0,.65-.53.92.92,0,0,0,.22-.62.81.81,0,0,0-.41-.7,2.06,2.06,0,0,0-1.13-.26,4,4,0,0,0-2.86,1.44,10.3,10.3,0,0,0-2.18,3.74,14.16,14.16,0,0,0-.82,4.8v8.93a1.12,1.12,0,0,0,.24.81,1.13,1.13,0,0,0,.82.24h2v1.16h-9.59Z"/><path class="cls-1" d="M195,138.39h.86l1.78,3.79q2.59,4.56,6.72,4.56a4.48,4.48,0,0,0,3.29-1.08,4,4,0,0,0,1.08-2.95,2.81,2.81,0,0,0-.84-2,5.83,5.83,0,0,0-2.23-1.42l-5.48-2.21a12.34,12.34,0,0,1-4.08-2.54,5.14,5.14,0,0,1-1.48-3.79,5.35,5.35,0,0,1,1.82-4.42,7.07,7.07,0,0,1,4.61-1.49,7.24,7.24,0,0,1,2.61.46,7.51,7.51,0,0,1,2,1.08,3.32,3.32,0,0,0,1.59.77c.41,0,.67-.29.77-.87l.09-1H209v7.3h-.87l-.67-1.68a7.62,7.62,0,0,0-2.9-3.84A6.8,6.8,0,0,0,201,126a4.69,4.69,0,0,0-2.93.89,2.94,2.94,0,0,0-1.15,2.47,2.78,2.78,0,0,0,1.13,2.28,13.13,13.13,0,0,0,3.09,1.71l5.19,2.16a8.77,8.77,0,0,1,3.45,2.33,5.72,5.72,0,0,1,1.16,3.81,5.78,5.78,0,0,1-1.83,4.73,7.24,7.24,0,0,1-4.8,1.51,7.33,7.33,0,0,1-2.88-.48,10.62,10.62,0,0,1-2.16-1.29,6.19,6.19,0,0,0-.86-.58,1.65,1.65,0,0,0-.77-.24c-.77,0-1.3.54-1.58,1.63l-.2,1H195Z"/><path class="cls-1" d="M214.76,146.16h2a1.13,1.13,0,0,0,.82-.24,1.12,1.12,0,0,0,.24-.81V127.64a.89.89,0,0,0-1.06-1.06h-2v-1.15h6.52v19.68a1.12,1.12,0,0,0,.24.81,1.15,1.15,0,0,0,.82.24h2v1.16h-9.6Zm2.73-27.4a2.43,2.43,0,0,1-.72-1.78,2.38,2.38,0,0,1,.72-1.8,2.64,2.64,0,0,1,3.58,0,2.43,2.43,0,0,1,.69,1.8,2.48,2.48,0,0,1-.69,1.78,2.59,2.59,0,0,1-3.58,0Z"/><path class="cls-1" d="M230.64,129a6.09,6.09,0,0,0-1-1.82,1.89,1.89,0,0,0-1.51-.58h-1.4v-1.15h10.37v1.15h-1.34a1.9,1.9,0,0,0-1.06.31,1,1,0,0,0-.48.84,4.56,4.56,0,0,0,.29,1.59l5.38,13,3.88-11.38c.13-.38.25-.82.37-1.3a5.35,5.35,0,0,0,.16-1.15,1.91,1.91,0,0,0-.48-1.34,1.6,1.6,0,0,0-1.24-.53h-1.16v-1.15h8.74v1.15h-1.1a3.05,3.05,0,0,0-2,.7,4.36,4.36,0,0,0-1.37,2.13l-6.33,18.48h-.87Z"/><path class="cls-1" d="M254,144.87q-2.72-3-2.71-8.4a13.83,13.83,0,0,1,1.2-5.74,10.73,10.73,0,0,1,3.34-4.27,7.74,7.74,0,0,1,4.77-1.61,7.15,7.15,0,0,1,4.8,1.59,9,9,0,0,1,2.72,4,15.39,15.39,0,0,1,.84,5,.72.72,0,0,1-.34.7,2.82,2.82,0,0,1-1.15.17H255.56a17.79,17.79,0,0,0,1.36,7.63,4.65,4.65,0,0,0,4.49,2.83,6.24,6.24,0,0,0,4.15-1.68,8.26,8.26,0,0,0,2.48-5.23h1.15a9.26,9.26,0,0,1-2.43,5.78,7.24,7.24,0,0,1-5.54,2.28A9.19,9.19,0,0,1,254,144.87Zm10.83-9.75a18.29,18.29,0,0,0-1-6.48c-.67-1.76-1.78-2.64-3.31-2.64a4,4,0,0,0-3.72,2.67,14.84,14.84,0,0,0-1.27,6.45Z"/><path class="cls-1" d="M287.52,145.78H291a1.15,1.15,0,0,0,1.3-1.3V116a1.13,1.13,0,0,0-1.3-1.29h-3.46v-1.54h26.79l.19,12h-1.2a22,22,0,0,0-.41-3.26,10.78,10.78,0,0,0-1.61-4.13,6.39,6.39,0,0,0-5.66-3.07H298a1.35,1.35,0,0,0-1,.31,1.33,1.33,0,0,0-.31,1v12.91h3.7a3.66,3.66,0,0,0,3.53-2.49,13.47,13.47,0,0,0,1.08-5.33h1.24v17.18H305a13.42,13.42,0,0,0-1.08-5.32,3.65,3.65,0,0,0-3.53-2.5h-3.7v14.06a1.15,1.15,0,0,0,1.3,1.3h7.68a7.2,7.2,0,0,0,2.83-.62,6.25,6.25,0,0,0,2.45-1.92,11.65,11.65,0,0,0,1.58-3.36,23.93,23.93,0,0,0,.86-3.68c.16-1.1.26-1.81.29-2.13h1.2l-.57,13.25H287.52Z"/><path class="cls-1" d="M319.3,146.16h1.25a2.79,2.79,0,0,0,1.92-.69,10,10,0,0,0,1.58-1.95l4.37-6.52-5.86-9.36a2.76,2.76,0,0,0-.74-.82,2.19,2.19,0,0,0-1.18-.24h-1.15v-1.15H329v1.15h-1.15a.85.85,0,0,0-1,1,2,2,0,0,0,.29,1l3.31,5.37,3.17-4.7a2.64,2.64,0,0,0,.43-1.54,1,1,0,0,0-.36-.81,1.24,1.24,0,0,0-.79-.29h-1.15v-1.15h8.35v1.15h-1.2a3.32,3.32,0,0,0-1.78.48,5.4,5.4,0,0,0-1.53,1.63l-4.37,6.43,6.1,9.8a3.3,3.3,0,0,0,.86,1,2.85,2.85,0,0,0,1.49.28h1.1v1.16h-10v-1.16h1.44a1.35,1.35,0,0,0,.81-.21.7.7,0,0,0,.29-.6,1.61,1.61,0,0,0-.09-.51,4.59,4.59,0,0,0-.24-.5l-3.84-6.14L325.92,143a3.87,3.87,0,0,0-.72,1.68q0,1.44,1.2,1.44h.87v1.16h-8Z"/><path class="cls-1" d="M344,157.2h2.5a.89.89,0,0,0,1-1V127.64a1.13,1.13,0,0,0-.24-.82,1.12,1.12,0,0,0-.81-.24H344v-1.15h7V129l.19.05a8.39,8.39,0,0,1,2.33-3,5.05,5.05,0,0,1,3.24-1.13,6.77,6.77,0,0,1,4.2,1.51,10.4,10.4,0,0,1,3.09,4.16,15.36,15.36,0,0,1,0,11.71,10.37,10.37,0,0,1-3.09,4.15,6.71,6.71,0,0,1-4.2,1.51,5.17,5.17,0,0,1-3.36-1.22,7.59,7.59,0,0,1-2.21-2.95l-.19,0v12.39a.89.89,0,0,0,1,1h2.5v1.16H344Zm15.79-13.29a18.77,18.77,0,0,0,1.2-7.54,18.75,18.75,0,0,0-1.2-7.53q-1.2-2.64-3.55-2.64a3.92,3.92,0,0,0-2.64,1,7.2,7.2,0,0,0-1.9,2.91,11.32,11.32,0,0,0-.69,4v4.42a11.37,11.37,0,0,0,.69,4,7.16,7.16,0,0,0,1.9,2.9,3.89,3.89,0,0,0,2.64,1.06Q358.56,146.55,359.76,143.91Z"/><path class="cls-1" d="M372.51,144.87q-2.72-3-2.72-8.4a13.83,13.83,0,0,1,1.2-5.74,10.73,10.73,0,0,1,3.34-4.27,7.76,7.76,0,0,1,4.78-1.61,7.16,7.16,0,0,1,4.8,1.59,9,9,0,0,1,2.71,4,15.13,15.13,0,0,1,.84,5,.72.72,0,0,1-.34.7,2.82,2.82,0,0,1-1.15.17H374a17.79,17.79,0,0,0,1.36,7.63,4.65,4.65,0,0,0,4.49,2.83,6.28,6.28,0,0,0,4.16-1.68,8.3,8.3,0,0,0,2.47-5.23h1.15a9.26,9.26,0,0,1-2.43,5.78,7.24,7.24,0,0,1-5.54,2.28A9.17,9.17,0,0,1,372.51,144.87Zm10.82-9.75a18.29,18.29,0,0,0-1-6.48c-.67-1.76-1.78-2.64-3.31-2.64a4,4,0,0,0-3.72,2.67,14.84,14.84,0,0,0-1.27,6.45Z"/><path class="cls-1" d="M391.39,146.16h2a.89.89,0,0,0,1-1V127.64a1.13,1.13,0,0,0-.24-.82,1.12,1.12,0,0,0-.81-.24h-2v-1.15h6.53v4.8l.19.05a10.66,10.66,0,0,1,2.62-4,5,5,0,0,1,3.43-1.47,4.26,4.26,0,0,1,3,1.06,3.69,3.69,0,0,1,1.15,2.88,3.42,3.42,0,0,1-.75,2.06,2.25,2.25,0,0,1-1.89,1,2.46,2.46,0,0,1-1.54-.48,1.61,1.61,0,0,1-.62-1.34,2.11,2.11,0,0,1,1-1.73,3.56,3.56,0,0,0,.65-.53.91.91,0,0,0,.21-.62.8.8,0,0,0-.4-.7,2.06,2.06,0,0,0-1.13-.26,4,4,0,0,0-2.86,1.44,10.3,10.3,0,0,0-2.18,3.74,14.16,14.16,0,0,0-.82,4.8v8.93a1.12,1.12,0,0,0,.24.81,1.13,1.13,0,0,0,.82.24h2v1.16h-9.6Z"/><path class="cls-1" d="M411.07,146.16h2a.89.89,0,0,0,1.05-1V127.64a1.13,1.13,0,0,0-.24-.82,1.12,1.12,0,0,0-.81-.24h-2v-1.15h6.53v19.68a1.12,1.12,0,0,0,.24.81,1.13,1.13,0,0,0,.82.24h2v1.16h-9.6Zm2.74-27.4a2.43,2.43,0,0,1-.72-1.78,2.38,2.38,0,0,1,.72-1.8,2.47,2.47,0,0,1,1.77-.7,2.44,2.44,0,0,1,1.8.7,2.4,2.4,0,0,1,.7,1.8,2.45,2.45,0,0,1-.7,1.78,2.38,2.38,0,0,1-1.8.72A2.41,2.41,0,0,1,413.81,118.76Z"/><path class="cls-1" d="M427.22,144.87c-1.8-2-2.71-4.82-2.71-8.4a13.83,13.83,0,0,1,1.2-5.74,10.73,10.73,0,0,1,3.34-4.27,7.74,7.74,0,0,1,4.77-1.61,7.13,7.13,0,0,1,4.8,1.59,9,9,0,0,1,2.72,4,15.13,15.13,0,0,1,.84,5,.72.72,0,0,1-.34.7,2.82,2.82,0,0,1-1.15.17H428.74a17.79,17.79,0,0,0,1.36,7.63,4.65,4.65,0,0,0,4.49,2.83,6.24,6.24,0,0,0,4.15-1.68,8.26,8.26,0,0,0,2.48-5.23h1.15a9.26,9.26,0,0,1-2.43,5.78,7.24,7.24,0,0,1-5.54,2.28A9.19,9.19,0,0,1,427.22,144.87Zm10.83-9.75a18.29,18.29,0,0,0-1-6.48c-.67-1.76-1.78-2.64-3.31-2.64a4,4,0,0,0-3.72,2.67,14.84,14.84,0,0,0-1.27,6.45Z"/><path class="cls-1" d="M446.11,146.16h2a.89.89,0,0,0,1.05-1V127.64a1.13,1.13,0,0,0-.24-.82,1.12,1.12,0,0,0-.81-.24h-2v-1.15h6.53v3.93l.19,0a8.56,8.56,0,0,1,2.74-3.43,6.17,6.17,0,0,1,3.6-1.13c2.33,0,4,.72,5,2.16a9,9,0,0,1,1.47,5.19v12.91a1.12,1.12,0,0,0,.24.81,1.13,1.13,0,0,0,.82.24h2v1.16h-9.6v-1.16h2a.89.89,0,0,0,1.05-1V131.28a7.26,7.26,0,0,0-.84-3.6,3,3,0,0,0-2.85-1.48,4.4,4.4,0,0,0-3,1.17,7.88,7.88,0,0,0-2.07,3.22,13.29,13.29,0,0,0-.74,4.53v10a1.12,1.12,0,0,0,.24.81,1.13,1.13,0,0,0,.82.24h2v1.16h-9.6Z"/><path class="cls-1" d="M477,146.36a10.1,10.1,0,0,1-3.31-4.18,14,14,0,0,1-1.18-5.81,13.89,13.89,0,0,1,1.2-5.81,10.14,10.14,0,0,1,3.34-4.17,8.07,8.07,0,0,1,4.87-1.54,7.54,7.54,0,0,1,3.84.94,6.54,6.54,0,0,1,2.49,2.4,5.71,5.71,0,0,1,.87,2.95,3.34,3.34,0,0,1-.77,2.33,2.44,2.44,0,0,1-1.87.84,2.22,2.22,0,0,1-1.61-.63,2,2,0,0,1-.65-1.48,2.16,2.16,0,0,1,.48-1.44,2.29,2.29,0,0,1,1.16-.77c.51-.16.76-.45.76-.87a2.29,2.29,0,0,0-.5-1.29,4.25,4.25,0,0,0-1.56-1.27,5.67,5.67,0,0,0-2.64-.56,4,4,0,0,0-4.1,2.6,21,21,0,0,0-1.08,7.77,21.86,21.86,0,0,0,1.05,7.78,4,4,0,0,0,4.13,2.59,5.36,5.36,0,0,0,4.51-2.06,9.68,9.68,0,0,0,1.92-4.85h1.15a10.76,10.76,0,0,1-1,3.81,7.69,7.69,0,0,1-2.55,3.05,6.74,6.74,0,0,1-4,1.2A8.22,8.22,0,0,1,477,146.36Z"/><path class="cls-1" d="M496.15,144.87q-2.72-3-2.71-8.4a13.83,13.83,0,0,1,1.2-5.74,10.8,10.8,0,0,1,3.33-4.27,7.79,7.79,0,0,1,4.78-1.61,7.16,7.16,0,0,1,4.8,1.59,9,9,0,0,1,2.71,4,15.13,15.13,0,0,1,.84,5,.71.71,0,0,1-.33.7,2.85,2.85,0,0,1-1.15.17h-12a17.78,17.78,0,0,0,1.37,7.63,4.64,4.64,0,0,0,4.49,2.83,6.24,6.24,0,0,0,4.15-1.68,8.2,8.2,0,0,0,2.47-5.23h1.15a9.31,9.31,0,0,1-2.42,5.78,7.24,7.24,0,0,1-5.54,2.28A9.19,9.19,0,0,1,496.15,144.87ZM507,135.12a18.31,18.31,0,0,0-1-6.48c-.68-1.76-1.78-2.64-3.32-2.64a4,4,0,0,0-3.72,2.67,15,15,0,0,0-1.27,6.45Z"/></g></svg>